
		<svg width="3134.089997868725" height="891.6984858270207" xmlns="http://www.w3.org/2000/svg" xmlns:xlink="http://www.w3.org/1999/xlink" version="1.1">
            <g transform="scale(6.704499893436246) translate(10, 10)">
				<defs id="SvgjsDefs1002"/><g id="main_text" rel="mainfill" name="main_text" xmlns:name="mainText_mainfill" fill="#ffffff" transform="translate(137.58469892923898, 23.32450294494629)"><path d="M34.221 44.778 c-3.417 4.08 -7.905 6.732 -14.025 6.732 c-10.2 0 -18.156 -8.211 -18.156 -18.36 c0 -10.047 8.058 -18.309 18.156 -18.309 c5.712 0 10.2 2.295 13.668 6.324 l-5.406 4.692 c-2.244 -2.346 -4.998 -4.029 -8.313 -4.029 c-6.069 0 -10.761 4.947 -10.761 11.322 c0 6.477 4.692 11.373 10.761 11.373 c3.366 0 6.171 -1.734 8.466 -4.233 z M59.16 51 l-19.839 0 l0 -35.7 l7.242 0 l0 29.07 l12.597 0 l0 6.63 z M84.09899999999999 51 l-2.448 -8.466 l-10.71 0 l-2.499 8.466 l-7.752 0 l11.526 -35.7 l8.109 0 l11.526 35.7 l-7.752 0 z M73.746 32.997 l-1.122 3.825 l7.344 0 l-1.071 -3.825 c-0.969 -3.519 -2.193 -7.701 -2.601 -9.996 c-0.459 2.805 -1.53 6.528 -2.55 9.996 z M103.68299999999999 51 l-7.242 0 l0 -35.7 l13.005 0 c7.038 0 11.526 4.539 11.526 11.73 c0 4.59 -1.836 8.007 -4.947 9.945 l6.12 14.025 l-7.956 0 l-4.998 -12.291 l-5.508 0 l0 12.291 z M108.32399999999998 32.079 c3.519 0 5.661 -1.785 5.661 -5.049 s-2.091 -5.1 -5.661 -5.1 l-4.641 0 l0 10.149 l4.641 0 z M142.902 51 l-16.167 0 l0 -6.018 l4.437 0 l0 -23.613 l-4.437 0 l0 -6.069 l16.167 0 l0 6.069 l-4.437 0 l0 23.613 l4.437 0 l0 6.018 z M161.16 51 l-7.344 0 l0 -28.968 l-6.834 0 l0 -6.732 l21.012 0 l0 6.732 l-6.834 0 l0 28.968 z M187.884 51 l-7.242 0 l0 -15.045 l-10.098 -20.655 l8.109 0 l4.437 10.761 c0.663 1.428 1.071 2.856 1.173 3.111 c0.051 -0.153 0.459 -1.581 1.173 -3.111 l4.947 -10.761 l8.16 0 l-10.659 20.706 l0 14.994 z M214.50599999999997 39.474000000000004 l-12.393 0 l0 -5.508 l12.393 0 l0 5.508 z M231.081 51 l-10.455 0 l0 -35.7 l11.118 0 c6.12 0 9.282 3.621 9.282 8.313 c0 3.264 -1.53 5.355 -3.876 6.681 c4.539 1.53 7.395 4.947 7.395 9.69 c0 6.222 -4.029 11.016 -13.464 11.016 z M227.868 45.033 l4.131 0 c7.191 0 6.834 -10.353 0.051 -10.353 l-4.182 0 l0 10.353 z M227.868 28.101 l2.856 0 c4.233 0 5.1 -7.599 0 -7.599 l-2.856 0 l0 7.599 z M267.495 51.51 c-10.149 0 -18.36 -8.211 -18.36 -18.36 c0 -10.047 8.211 -18.309 18.36 -18.309 c10.047 0 18.309 8.262 18.309 18.309 c0 10.149 -8.262 18.36 -18.309 18.36 z M267.495 44.676 c6.171 0 10.761 -4.794 10.761 -11.526 s-4.59 -11.475 -10.761 -11.475 c-6.222 0 -10.812 4.794 -10.812 11.475 c0 6.783 4.59 11.526 10.812 11.526 z M303.042 51 l-7.344 0 l0 -28.968 l-6.834 0 l0 -6.732 l21.012 0 l0 6.732 l-6.834 0 l0 28.968 z"/></g><g id="SvgjsG1009" rel="mainfill" name="symbol" xmlns:name="symbol_mainfill" fill="#ffffff" transform="translate(-6.923594435820343, -12.73664161960604) scale(1.38471888716407)"><g xmlns="http://www.w3.org/2000/svg" display="none"><rect x="-987.879" y="-285.155" display="inline" fill="" width="1286.936" height="912.422"/></g><g xmlns="http://www.w3.org/2000/svg"><g><path d="M39.243,49.502h1.133c0.695,0,1.26-0.565,1.26-1.259v-8.338c0-0.694-0.565-1.26-1.26-1.26h-1.133    c-0.695,0-1.26,0.565-1.26,1.26v8.338C37.983,48.937,38.548,49.502,39.243,49.502z"/><path d="M49.798,49.502h1.134c0.694,0,1.259-0.565,1.259-1.259v-8.338c0-0.694-0.565-1.26-1.259-1.26h-1.134    c-0.694,0-1.259,0.565-1.259,1.26v8.338C48.539,48.937,49.104,49.502,49.798,49.502z"/><path d="M57.29,56.532c2.608,0,4.729-2.121,4.729-4.728v-15.46c0-2.607-2.121-4.728-4.729-4.728H32.885    c-2.607,0-4.728,2.121-4.728,4.728v15.46c0,2.607,2.121,4.728,4.728,4.728H57.29z M30.07,51.803v-15.46    c0-1.552,1.263-2.815,2.815-2.815H57.29c1.552,0,2.816,1.263,2.816,2.815v15.46c0,1.552-1.264,2.815-2.816,2.815H32.885    C31.333,54.619,30.07,53.356,30.07,51.803z"/><path d="M91.914,29.33l-1.069,1.587c1.404,0.944,2.242,2.538,2.242,4.264c0,2.815-2.207,5.105-4.92,5.105    c-2.716,0-4.926-2.29-4.926-5.105c0-1.726,0.838-3.319,2.242-4.264l-1.069-1.587c-1.933,1.3-3.086,3.487-3.086,5.851    c0,3.534,2.562,6.459,5.879,6.94v8.483c0,2.162-1.694,3.922-3.777,3.922h-6.865V32.628c0-4.432-3.606-8.038-8.038-8.038h-17.57    v-5.358c2.339-0.448,4.109-2.499,4.109-4.969c0-2.798-2.268-5.065-5.065-5.065s-5.065,2.268-5.065,5.065    c0,2.47,1.77,4.521,4.109,4.969v5.358h-17.57c-4.432,0-8.038,3.606-8.038,8.038v16.863v5.036H16.57    c-2.083,0-3.778-1.759-3.778-3.922v-8.433v-0.05c3.317-0.481,5.88-3.406,5.88-6.94c0-2.363-1.154-4.55-3.086-5.851l-0.534,0.793    l-0.534,0.794c1.404,0.944,2.242,2.538,2.242,4.264c0,2.815-2.21,5.105-4.926,5.105c-2.713,0-4.92-2.29-4.92-5.105    c0-1.726,0.838-3.319,2.242-4.264L8.62,30.124L8.086,29.33C6.154,30.631,5,32.818,5,35.181c0,3.536,2.562,6.462,5.879,6.941v8.482    c0,3.217,2.553,5.835,5.691,5.835h6.865v15.624h-2.21c-5.166,0-9.37,4.203-9.37,9.37c0,5.166,4.203,9.37,9.37,9.37h9.418h38.712    h9.418c5.166,0,9.37-4.203,9.37-9.37c0-5.166-4.203-9.37-9.37-9.37h-2.21V56.439h6.865c3.137,0,5.69-2.617,5.69-5.835v-8.482    c3.317-0.479,5.88-3.405,5.88-6.941C95,32.818,93.846,30.631,91.914,29.33z M25.349,32.628c0-3.377,2.747-6.125,6.125-6.125    h34.015v45.56H30.644h-5.295V32.628z M76.813,81.433c0,4.112-3.345,7.457-7.457,7.457H30.644h-9.418    c-4.112,0-7.457-3.345-7.457-7.457c0-4.112,3.345-7.457,7.457-7.457h9.418h38.712C73.468,73.976,76.813,77.321,76.813,81.433z"/><path d="M24.429,76.678c-2.622,0-4.754,2.133-4.754,4.755s2.132,4.755,4.754,4.755s4.755-2.133,4.755-4.755    S27.051,76.678,24.429,76.678z M24.429,84.275c-1.566,0-2.841-1.275-2.841-2.842s1.275-2.842,2.841-2.842    c1.567,0,2.842,1.275,2.842,2.842S25.996,84.275,24.429,84.275z"/><path d="M64.217,76.678c-2.622,0-4.755,2.133-4.755,4.755s2.133,4.755,4.755,4.755s4.754-2.133,4.754-4.755    S66.839,76.678,64.217,76.678z M64.217,84.275c-1.567,0-2.842-1.275-2.842-2.842s1.275-2.842,2.842-2.842    c1.566,0,2.841,1.275,2.841,2.842S65.783,84.275,64.217,84.275z"/><path d="M44.323,76.678c-2.622,0-4.755,2.133-4.755,4.755s2.133,4.755,4.755,4.755s4.755-2.133,4.755-4.755    S46.945,76.678,44.323,76.678z M44.323,84.275c-1.567,0-2.842-1.275-2.842-2.842s1.275-2.842,2.842-2.842    c1.567,0,2.842,1.275,2.842,2.842S45.89,84.275,44.323,84.275z"/></g></g></g>
			</g>
		</svg>
    